<svg width="136" height="29" viewBox="0 0 136 29" fill="none" xmlns="http://www.w3.org/2000/svg">
<path d="M20 6.25V21C19.9998 21.1249 20.0463 21.2455 20.1305 21.3378C20.2147 21.4301 20.3304 21.4876 20.4548 21.4989C20.5793 21.5102 20.7034 21.4745 20.8028 21.3988C20.9023 21.3231 20.9697 21.2129 20.992 21.09L21 21V7.5H22.25C22.6892 7.50002 23.1123 7.66517 23.4354 7.96268C23.7585 8.26019 23.9579 8.6683 23.994 9.106L24 9.25V21.25C24.0001 22.0801 23.6824 22.8788 23.1123 23.4822C22.5422 24.0856 21.7628 24.448 20.934 24.495L20.75 24.5H3.25C2.41986 24.5001 1.62117 24.1824 1.01777 23.6123C0.414367 23.0422 0.0519987 22.2628 0.00500011 21.434L0 21.25V6.25C1.64046e-05 5.81081 0.165171 5.38768 0.46268 5.06461C0.760189 4.74154 1.1683 4.54214 1.606 4.506L1.75 4.5H18.25C18.6892 4.50002 19.1123 4.66517 19.4354 4.96268C19.7585 5.26019 19.9579 5.6683 19.994 6.106L20 6.25ZM7.747 13.504H5.25C4.81081 13.504 4.38768 13.6692 4.06461 13.9667C3.74154 14.2642 3.54214 14.6723 3.506 15.11L3.5 15.254V17.75C3.50002 18.1892 3.66517 18.6123 3.96268 18.9354C4.26019 19.2585 4.6683 19.4579 5.106 19.494L5.25 19.5H7.747C8.18635 19.5 8.60961 19.3347 8.93271 19.037C9.25581 18.7392 9.4551 18.3309 9.491 17.893L9.496 17.75V15.254C9.49623 14.8146 9.33119 14.3913 9.03366 14.068C8.73613 13.7447 8.32787 13.5452 7.89 13.509L7.747 13.504ZM15.75 18H12.25L12.148 18.007C11.9685 18.0317 11.804 18.1206 11.6849 18.2571C11.5658 18.3937 11.5002 18.5688 11.5002 18.75C11.5002 18.9312 11.5658 19.1063 11.6849 19.2429C11.804 19.3794 11.9685 19.4683 12.148 19.493L12.25 19.5H15.75L15.852 19.493C16.0315 19.4683 16.196 19.3794 16.3151 19.2429C16.4342 19.1063 16.4998 18.9312 16.4998 18.75C16.4998 18.5688 16.4342 18.3937 16.3151 18.2571C16.196 18.1206 16.0315 18.0317 15.852 18.007L15.75 18ZM5.25 15.004H7.747C7.80319 15.004 7.85772 15.023 7.90181 15.0578C7.9459 15.0927 7.97696 15.1413 7.99 15.196L7.997 15.254V17.75C7.99691 17.8063 7.9778 17.861 7.94277 17.9051C7.90774 17.9492 7.85884 17.9802 7.804 17.993L7.747 18H5.25C5.19368 17.9999 5.13904 17.9808 5.09493 17.9458C5.05083 17.9107 5.01984 17.8618 5.007 17.807L5 17.75V15.254C4.99987 15.1975 5.01887 15.1426 5.05392 15.0983C5.08897 15.054 5.13799 15.0229 5.193 15.01L5.25 15.004ZM15.75 13.504H12.25L12.148 13.51C11.9677 13.5339 11.8023 13.6225 11.6824 13.7592C11.5626 13.896 11.4965 14.0717 11.4965 14.2535C11.4965 14.4353 11.5626 14.611 11.6824 14.7478C11.8023 14.8845 11.9677 14.9731 12.148 14.997L12.25 15.004H15.75L15.852 14.997C16.0323 14.9731 16.1977 14.8845 16.3176 14.7478C16.4374 14.611 16.5035 14.4353 16.5035 14.2535C16.5035 14.0717 16.4374 13.896 16.3176 13.7592C16.1977 13.6225 16.0323 13.5339 15.852 13.51L15.75 13.504ZM15.75 8.997H4.25L4.148 9.004C3.96849 9.0287 3.80399 9.11755 3.68491 9.25414C3.56583 9.39072 3.50023 9.5658 3.50023 9.747C3.50023 9.9282 3.56583 10.1033 3.68491 10.2399C3.80399 10.3764 3.96849 10.4653 4.148 10.49L4.25 10.497H15.75L15.852 10.49C16.0315 10.4653 16.196 10.3764 16.3151 10.2399C16.4342 10.1033 16.4998 9.9282 16.4998 9.747C16.4998 9.5658 16.4342 9.39072 16.3151 9.25414C16.196 9.11755 16.0315 9.0287 15.852 9.004L15.75 8.997Z" fill="#4362D0"/>
<path d="M49.9297 10.5547V12.9453H35V4.78906H37.9766V10.5547H49.9297ZM32.6328 17.75V15.3594H52.0859V17.75H47.6328V25.1562H44.6094V17.75H40.1328V25.1562H37.1328V17.75H32.6328ZM64.6016 6.64062C64.5898 9.76953 67.3672 13.1094 72.1953 13.9297L70.8828 16.4141C67.1562 15.6758 64.4023 13.5781 63.0195 10.8477C61.6133 13.5547 58.8477 15.6641 55.1562 16.4141L53.8672 13.9297C58.6133 13.0859 61.3906 9.73438 61.4141 6.64062V5.09375H64.6016V6.64062ZM53.375 22.5312V20.0703H72.8984V22.5312H53.375ZM85.3438 6.64062C85.332 9.76953 88.1094 13.1094 92.9375 13.9297L91.625 16.4141C87.8984 15.6758 85.1445 13.5781 83.7617 10.8477C82.3555 13.5547 79.5898 15.6641 75.8984 16.4141L74.6094 13.9297C79.3555 13.0859 82.1328 9.73438 82.1562 6.64062V5.09375H85.3438V6.64062ZM74.1172 22.5312V20.0703H93.6406V22.5312H74.1172ZM104.047 5.53906V7.88281H98.4688V9.85156H103.836V12.1484H98.4688V14.1875C100.836 14.1641 102.582 14.0703 104.562 13.7422L104.867 16.0859C102.371 16.5312 100.285 16.5898 97.0625 16.5781H95.6094V5.53906H104.047ZM98.7266 24.7812V17.9609H101.727V22.3906H113.727V24.7812H98.7266ZM105.711 19.2969V4.22656H108.5V9.73438H110.352V3.85156H113.188V19.7188H110.352V12.125H108.5V19.2969H105.711ZM132.992 13.6953V16.0859H117.898V5.60938H132.828V8.02344H120.852V13.6953H132.992ZM115.602 22.5547V20.0938H135.125V22.5547H115.602Z" fill="#14212B"/>
</svg>
